<?xml version="1.0" encoding="UTF-8"?>
<svg version="1.1" xmlns="http://www.w3.org/2000/svg" width="1853" height="2048">
<path d="M0 0 C2.10011092 -0.00959722 4.19919486 -0.04061788 6.29907227 -0.07226562 C37.34977903 -0.31503126 62.4975487 14.88303529 88.69165039 29.82617188 C95.12515461 33.49303518 101.59749213 37.08835529 108.07446289 40.67773438 C122.00060321 48.40061031 135.89423729 56.18068576 149.78344727 63.96972656 C161.57642574 70.58229799 173.37772705 77.17918792 185.19946289 83.74023438 C199.08228006 91.44517802 212.93486486 99.20346961 226.78344727 106.96972656 C239.71152166 114.21877017 252.65305452 121.44266732 265.61303711 128.63452148 C274.18248448 133.39197435 282.73634005 138.17673638 291.28540039 142.97070312 C298.91319247 147.24572513 306.55369944 151.49744802 314.19946289 155.74023438 C323.90626381 161.12673146 333.59865517 166.53819683 343.28100586 171.96850586 C350.95062653 176.26748236 358.63531018 180.53880926 366.32446289 184.80273438 C374.59612429 189.39019567 382.84821396 194.00934895 391.07446289 198.67773438 C399.74660883 203.59834378 408.46334058 208.43454084 417.19946289 213.24023438 C426.8700869 218.55999223 436.50690053 223.93450357 446.10668945 229.38134766 C456.78282663 235.43338989 467.5179486 241.37868025 478.2512207 247.32861328 C493.61351763 255.8450948 508.96517758 264.37986034 524.28588867 272.97094727 C531.91349126 277.24593568 539.55385843 281.49753624 547.19946289 285.74023438 C556.90626381 291.12673146 566.59865517 296.53819683 576.28100586 301.96850586 C583.95062653 306.26748236 591.63531018 310.53880926 599.32446289 314.80273438 C607.59612429 319.39019567 615.84821396 324.00934895 624.07446289 328.67773438 C632.74660883 333.59834378 641.46334058 338.43454084 650.19946289 343.24023438 C659.8700869 348.55999223 669.50690053 353.93450357 679.10668945 359.38134766 C690.92606811 366.08146565 702.81630142 372.65414319 714.69946289 379.24023438 C728.49555133 386.88654102 742.27993719 394.54983938 756.00170898 402.32885742 C764.47849282 407.12876133 772.99283722 411.85974196 781.51196289 416.58398438 C789.08481639 420.78441678 796.64648466 425.00417567 804.19946289 429.24023438 C812.85489867 434.09393539 821.52263606 438.92488115 830.19946289 443.74023438 C834.69986085 446.23951851 839.19977065 448.73967993 843.69946289 451.24023438 C844.81514648 451.85995117 845.93083008 452.47966797 847.08032227 453.11816406 C853.40918769 456.63645297 859.72879287 460.17026782 866.03198242 463.734375 C867.6892396 464.66993809 869.34868049 465.60165731 871.01147461 466.52734375 C896.93278296 480.98660195 918.47609733 504.40472577 926.77075195 533.20043945 C929.01765734 541.19473483 930.82301194 548.67098959 930.82826406 557.04331708 C930.83003907 557.70706654 930.83181408 558.37081601 930.83364287 559.05467909 C930.83837749 561.2809764 930.83601117 563.50720876 930.83368397 565.73350906 C930.8356374 567.35180113 930.83802644 568.97009271 930.84081194 570.58838356 C930.84721613 575.05378559 930.84737322 579.51916964 930.84653453 583.98457539 C930.84670395 588.83584186 930.85260917 593.68710187 930.85777539 598.53836513 C930.86710714 608.16869955 930.87102441 617.79902938 930.87329436 627.42936777 C930.87625495 638.96142718 930.88495155 650.49348049 930.89370864 662.0255367 C930.91456038 689.90177584 930.92502415 717.77801605 930.93383824 745.65426117 C930.93804388 758.84049093 930.943266 772.02672023 930.94852277 785.21294961 C930.96613355 829.63855329 930.9811861 874.06415724 930.98849301 918.48976391 C930.98907698 922.03105737 930.98967424 925.57235083 930.99027063 929.11364429 C930.99038875 929.8161186 930.99050687 930.51859291 930.99062857 931.24235432 C930.99182594 938.35930578 930.9930347 945.47625723 930.9942611 952.59320868 C930.99450633 954.02016903 930.99475019 955.44712937 930.99499267 956.87408972 C931.0027801 1002.68942192 931.02515794 1048.50472849 931.05766909 1094.32004948 C931.08102167 1127.24002114 931.10256985 1160.1599877 931.10967541 1193.0799675 C931.10982243 1193.75730625 931.10996945 1194.43464501 931.11012093 1195.13250918 C931.11330611 1210.00357122 931.11535675 1224.87463321 931.11634847 1239.74569555 C931.1167632 1245.72964126 931.11731829 1251.71358696 931.11791039 1257.69753265 C931.11803358 1259.00666669 931.11815677 1260.31580073 931.11828369 1261.6646055 C931.12061578 1282.73261287 931.13627628 1303.80059017 931.15675223 1324.86858682 C931.17700871 1346.04681757 931.18248836 1367.2250122 931.1729816 1388.40325084 C931.1677659 1400.98373261 931.17364747 1413.56409415 931.19551627 1426.14455861 C931.20902776 1434.55311321 931.2079442 1442.96158509 931.19511431 1451.37014052 C931.1882201 1456.15792238 931.18753986 1460.94547444 931.2046744 1465.73323575 C931.22016955 1470.09863596 931.21686147 1474.4636234 931.19926412 1478.82901196 C931.19614352 1480.38902433 931.19955929 1481.94906902 931.21075587 1483.50904433 C931.3818921 1509.03917105 922.9118915 1531.49709909 906.69946289 1551.24023438 C905.9530957 1552.20703125 905.9530957 1552.20703125 905.19165039 1553.19335938 C895.52404209 1565.14427215 881.91564626 1572.85916902 868.69946289 1580.24023438 C866.77870629 1581.32193952 864.85814405 1582.40398985 862.93774414 1583.48632812 C857.61661428 1586.47875074 852.28619856 1589.45427022 846.95336914 1592.42578125 C841.69783979 1595.35638555 836.4488924 1598.29872237 831.19946289 1601.24023438 C824.92694996 1604.75360764 818.6539216 1608.26605192 812.37915039 1611.77539062 C802.30742167 1617.4095755 792.24284946 1623.05565686 782.19946289 1628.74023438 C771.10473585 1635.01987276 759.98332896 1641.25124136 748.85668945 1647.47412109 C743.6365258 1650.39421573 738.41805516 1653.3173327 733.19946289 1656.24023438 C726.92687441 1659.7534729 720.6539217 1663.26605187 714.37915039 1666.77539062 C704.30742167 1672.4095755 694.24284946 1678.05565686 684.19946289 1683.74023438 C673.10473585 1690.01987276 661.98332896 1696.25124136 650.85668945 1702.47412109 C645.6365258 1705.39421573 640.41805516 1708.3173327 635.19946289 1711.24023438 C628.92687441 1714.7534729 622.6539217 1718.26605187 616.37915039 1721.77539062 C606.30742167 1727.4095755 596.24284946 1733.05565686 586.19946289 1738.74023438 C575.10473585 1745.01987276 563.98332896 1751.25124136 552.85668945 1757.47412109 C547.6365258 1760.39421573 542.41805516 1763.3173327 537.19946289 1766.24023438 C530.92687441 1769.7534729 524.6539217 1773.26605187 518.37915039 1776.77539062 C508.30742167 1782.4095755 498.24284946 1788.05565686 488.19946289 1793.74023438 C475.00302115 1801.20944762 461.76814568 1808.60959838 448.53344727 1816.01074219 C437.40975321 1822.23217824 426.29133884 1828.46220971 415.19946289 1834.74023438 C404.10473585 1841.01987276 392.98332896 1847.25124136 381.85668945 1853.47412109 C376.6365258 1856.39421573 371.41805516 1859.3173327 366.19946289 1862.24023438 C359.92687441 1865.7534729 353.6539217 1869.26605187 347.37915039 1872.77539062 C337.30742167 1878.4095755 327.24284946 1884.05565686 317.19946289 1889.74023438 C306.10473585 1896.01987276 294.98332896 1902.25124136 283.85668945 1908.47412109 C278.6365258 1911.39421573 273.41805516 1914.3173327 268.19946289 1917.24023438 C261.92687441 1920.7534729 255.6539217 1924.26605187 249.37915039 1927.77539062 C239.30742167 1933.4095755 229.24284946 1939.05565686 219.19946289 1944.74023438 C208.10473585 1951.01987276 196.98332896 1957.25124136 185.85668945 1963.47412109 C180.6365258 1966.39421573 175.41805516 1969.3173327 170.19946289 1972.24023438 C163.92687441 1975.7534729 157.6539217 1979.26605187 151.37915039 1982.77539062 C141.30742167 1988.4095755 131.24284946 1994.05565686 121.19946289 1999.74023438 C111.17081906 2005.41646747 101.12166693 2011.05535149 91.06274414 2016.67773438 C86.72115435 2019.10531883 82.38602 2021.54396563 78.05493164 2023.99023438 C46.42270066 2041.84150748 14.98502947 2055.65564546 -22.2722168 2046.05908203 C-24.29364201 2045.48645504 -26.29631766 2044.87010294 -28.30053711 2044.24023438 C-29.49678711 2043.89734375 -30.69303711 2043.55445313 -31.92553711 2043.20117188 C-45.98388831 2038.58455231 -58.74358409 2030.51771318 -71.55401611 2023.23223877 C-74.16758786 2021.74775924 -76.7868752 2020.27347201 -79.40600586 2018.79882812 C-83.15269979 2016.68724744 -86.89591559 2014.56969379 -90.63647461 2012.44726562 C-96.6377502 2009.04472866 -102.65518944 2005.67138449 -108.67553711 2002.30273438 C-109.71339355 2001.72193115 -110.75125 2001.14112793 -111.82055664 2000.54272461 C-114.98034401 1998.77485907 -118.14039154 1997.00745952 -121.30053711 1995.24023438 C-134.42966681 1987.89812699 -147.55019617 1980.54194849 -160.64135742 1973.13232422 C-170.79046386 1967.39111741 -180.96639469 1961.69806827 -191.14331055 1956.00634766 C-197.40382618 1952.50429305 -203.66202323 1948.99809684 -209.9206543 1945.49267578 C-215.15328759 1942.56210652 -220.38647933 1939.63254394 -225.62084961 1936.70507812 C-236.64224232 1930.53964557 -247.6509903 1924.35289468 -258.64135742 1918.13232422 C-268.79046386 1912.39111741 -278.96639469 1906.69806827 -289.14331055 1901.00634766 C-295.40382618 1897.50429305 -301.66202323 1893.99809684 -307.9206543 1890.49267578 C-313.15328759 1887.56210652 -318.38647933 1884.63254394 -323.62084961 1881.70507812 C-334.64224232 1875.53964557 -345.6509903 1869.35289468 -356.64135742 1863.13232422 C-367.84003225 1856.79739133 -379.07091736 1850.52009267 -390.30053711 1844.24023438 C-403.42966681 1836.89812699 -416.55019617 1829.54194849 -429.64135742 1822.13232422 C-439.79046386 1816.39111741 -449.96639469 1810.69806827 -460.14331055 1805.00634766 C-466.40382618 1801.50429305 -472.66202323 1797.99809684 -478.9206543 1794.49267578 C-484.15328759 1791.56210652 -489.38647933 1788.63254394 -494.62084961 1785.70507812 C-505.64224232 1779.53964557 -516.6509903 1773.35289468 -527.64135742 1767.13232422 C-537.79046386 1761.39111741 -547.96639469 1755.69806827 -558.14331055 1750.00634766 C-564.40382618 1746.50429305 -570.66202323 1742.99809684 -576.9206543 1739.49267578 C-582.15328759 1736.56210652 -587.38647933 1733.63254394 -592.62084961 1730.70507812 C-603.64224232 1724.53964557 -614.6509903 1718.35289468 -625.64135742 1712.13232422 C-635.79046386 1706.39111741 -645.96639469 1700.69806827 -656.14331055 1695.00634766 C-662.40382618 1691.50429305 -668.66202323 1687.99809684 -674.9206543 1684.49267578 C-680.15328759 1681.56210652 -685.38647933 1678.63254394 -690.62084961 1675.70507812 C-701.64224232 1669.53964557 -712.6509903 1663.35289468 -723.64135742 1657.13232422 C-733.79046386 1651.39111741 -743.96639469 1645.69806827 -754.14331055 1640.00634766 C-760.40382618 1636.50429305 -766.66202323 1632.99809684 -772.9206543 1629.49267578 C-778.15328759 1626.56210652 -783.38647933 1623.63254394 -788.62084961 1620.70507812 C-799.64024624 1614.54076219 -810.64892747 1608.35847338 -821.63476562 1602.13452148 C-826.58844981 1599.33022096 -831.54938045 1596.53994927 -836.52319336 1593.77148438 C-877.59565864 1570.91018617 -877.59565864 1570.91018617 -887.30053711 1562.24023438 C-887.95151367 1561.72976563 -888.60249023 1561.21929688 -889.27319336 1560.69335938 C-907.33171048 1546.18910308 -919.15015703 1521.91712626 -922.30053711 1499.24023438 C-922.58657475 1493.88421344 -922.57312548 1488.53539926 -922.55780602 1483.17388821 C-922.56050194 1481.54210333 -922.56407121 1479.91031971 -922.56843048 1478.27853844 C-922.5778716 1473.7943102 -922.5748933 1469.31016338 -922.56987494 1464.82593119 C-922.56660541 1459.94733663 -922.57489327 1455.06875937 -922.58169329 1450.19017035 C-922.59199867 1441.63950864 -922.59483615 1433.08886958 -922.59278107 1424.53820229 C-922.58973248 1411.82276545 -922.59805194 1399.1073537 -922.60853032 1386.39192174 C-922.62788026 1362.36057221 -922.63349892 1338.3292312 -922.63464443 1314.2978748 C-922.63556327 1295.73990316 -922.63967863 1277.18193486 -922.64604568 1258.62396431 C-922.64784076 1253.28342249 -922.64962059 1247.94288067 -922.65139544 1242.60233885 C-922.65161662 1241.93881621 -922.6518378 1241.27529356 -922.65206568 1240.59166417 C-922.66471267 1202.57191525 -922.67296404 1164.55216747 -922.67204857 1126.53241634 C-922.67201701 1125.10981336 -922.67198554 1123.68721038 -922.67195415 1122.26460739 C-922.67180739 1115.84181372 -922.67163105 1109.41902005 -922.67144638 1102.99622638 C-922.67136414 1100.13219886 -922.67128384 1097.26817133 -922.67120376 1094.4041438 C-922.67116297 1092.97064682 -922.67112093 1091.53714984 -922.67107764 1090.10365285 C-922.66971736 1044.78206057 -922.68434852 999.46049954 -922.7121582 954.13891602 C-922.71916043 942.72116321 -922.72609943 931.30341037 -922.732687 919.88565731 C-922.73309274 919.18259051 -922.73349849 918.4795237 -922.73391654 917.75515184 C-922.74634997 896.07977997 -922.75387833 874.40441067 -922.75640297 852.72903538 C-922.75648287 852.0483319 -922.75656277 851.36762842 -922.7566451 850.66629756 C-922.7583518 835.72185935 -922.75887399 820.77742131 -922.75830434 805.83298302 C-922.75808736 799.81972695 -922.75799286 793.80647087 -922.75792313 787.7932148 C-922.75789982 786.47768358 -922.75787651 785.16215237 -922.75785249 783.80675658 C-922.75779094 762.63463242 -922.77056379 741.46253466 -922.78778766 720.29041836 C-922.80474007 699.01187196 -922.80672103 677.73336419 -922.79356901 656.45481478 C-922.78617721 643.81411667 -922.78984479 631.17353586 -922.80945369 618.53285017 C-922.82145018 610.08557115 -922.81886624 601.63837712 -922.8045127 593.191102 C-922.79674699 588.38045659 -922.79520583 583.57003825 -922.8114274 578.75940882 C-922.82608366 574.37447804 -922.82199803 569.98996146 -922.80357967 565.6050485 C-922.80016471 564.03685623 -922.8033023 562.46863072 -922.81418208 560.90047247 C-922.99728078 532.59116018 -911.95041207 507.47409751 -892.30053711 487.24023438 C-878.92310888 474.25930789 -861.75747446 466.05853472 -845.61889648 457.08691406 C-840.33988737 454.14912529 -835.070545 451.19412944 -829.80053711 448.24023438 C-827.71725378 447.07347842 -825.63392035 445.90681191 -823.55053711 444.74023438 C-822.00366211 443.87398438 -822.00366211 443.87398438 -820.42553711 442.99023438 C-717.30053711 385.24023438 -614.17553711 327.49023438 -111.05053711 45.74023438 C-109.50281616 44.87350098 -109.50281616 44.87350098 -107.92382812 43.98925781 C-105.84621362 42.82580668 -103.768577 41.66239505 -101.69091797 40.49902344 C-95.31561978 36.92913644 -88.94113482 33.35780312 -82.56738281 29.78515625 C-79.42225026 28.02340276 -76.27550393 26.26455743 -73.12866211 24.50585938 C-69.48480677 22.4682555 -65.84915043 20.41751172 -62.22241211 18.34960938 C-42.24677149 7.00070883 -23.19603984 0.0637911 0 0 Z " fill="#00589B" transform="translate(922.300537109375,-0.240234375)"/>
<path d="M0 0 C3.32533296 0.00463059 6.65029994 -0.00231724 9.97558594 -0.02050781 C43.02734754 -0.19936562 75.51239402 2.07222339 108.18334961 7.31567383 C108.90695679 7.43126648 109.63056396 7.54685913 110.37609863 7.66595459 C134.69642997 11.57288978 158.43353379 16.79932949 182.18334961 23.31567383 C183.62061401 23.69961304 183.62061401 23.69961304 185.08691406 24.09130859 C266.49048392 45.8770444 343.98822521 84.39718266 437.10131836 155.70239258 C439.9196999 158.10648696 442.79506914 160.43335377 445.68334961 162.75317383 C451.48282323 167.47210506 456.92104282 172.5411652 462.37402344 177.64990234 C463.66834813 178.84153335 464.97723496 180.01742406 466.29541016 181.18261719 C473.44718475 187.50712054 480.20649883 194.18611317 486.94335938 200.9453125 C488.87444508 202.88177932 490.81084843 204.81281339 492.74780273 206.7434082 C498.77419915 212.7665615 504.67264224 218.81111874 510.18334961 225.31567383 C511.80302777 227.09137604 513.42746679 228.8627569 515.05834961 230.62817383 C519.97953308 236.03037523 524.59836614 241.62797281 529.18334961 247.31567383 C530.19269055 248.54572399 531.20317559 249.77483593 532.21459961 251.00317383 C550.59577592 273.37303215 567.1307145 297.03478509 582.68334961 321.44067383 C583.20026367 322.24682129 583.71717773 323.05296875 584.24975586 323.88354492 C586.60104046 327.59935835 588.76831759 331.12111463 590.18334961 335.31567383 C581.03110977 341.17456295 571.59840956 346.47766097 562.10351562 351.75756836 C554.74495015 355.85824644 547.44653696 360.04857375 540.18334961 364.31567383 C531.03436927 369.68789627 521.80931211 374.90644252 512.53881836 380.06567383 C505.36981266 384.06531835 498.26242198 388.15915427 491.18334961 392.31567383 C482.03421672 397.68764176 472.8093183 402.90643908 463.53881836 408.06567383 C456.36981266 412.06531835 449.26242198 416.15915427 442.18334961 420.31567383 C433.03421672 425.68764176 423.8093183 430.90643908 414.53881836 436.06567383 C407.36981266 440.06531835 400.26242198 444.15915427 393.18334961 448.31567383 C384.03421672 453.68764176 374.8093183 458.90643908 365.53881836 464.06567383 C357.37230201 468.62183737 349.29304929 473.31530885 341.22924805 478.05029297 C332.85014416 482.95740391 324.39441507 487.71964004 315.90600586 492.43481445 C308.94491482 496.30570153 302.04940896 500.27864313 295.18334961 504.31567383 C291.36340356 500.73783703 288.4860314 496.99025079 285.68334961 492.56567383 C274.37962031 475.21330647 261.04478595 459.49066527 246.93334961 444.37817383 C246.28390381 443.68014648 245.63445801 442.98211914 244.96533203 442.26293945 C241.14790095 438.21815915 237.18775572 434.46505946 232.96508789 430.84570312 C230.83677914 429.01806391 228.79600847 427.10518891 226.74584961 425.19067383 C178.77863648 381.99814501 116.49609651 355.31178485 53.18334961 345.31567383 C52.47774902 345.20094727 51.77214844 345.0862207 51.04516602 344.96801758 C35.48981042 342.44789845 19.90430693 342.07941468 4.18334961 342.06567383 C3.27037109 342.06433441 2.35739258 342.062995 1.41674805 342.06161499 C-15.4955486 342.06695347 -32.03993237 343.10509451 -48.81665039 345.31567383 C-49.69562988 345.42782227 -50.57460938 345.5399707 -51.48022461 345.65551758 C-116.81564374 354.28698579 -180.22457359 387.00360334 -228.09399414 431.78051758 C-230.60450918 434.11814206 -233.16850298 436.37455176 -235.75415039 438.62817383 C-245.71959291 447.58425481 -254.53996841 457.80488748 -262.81665039 468.31567383 C-263.94586914 469.7175293 -263.94586914 469.7175293 -265.09790039 471.14770508 C-305.7756332 522.58918861 -329.54585596 584.38659165 -336.81665039 649.31567383 C-336.92122559 650.24919678 -337.02580078 651.18271973 -337.13354492 652.14453125 C-338.06512788 661.70117253 -338.06020356 671.28485831 -338.06665039 680.87817383 C-338.06732513 681.78506958 -338.06799988 682.69196533 -338.06869507 683.62634277 C-338.05054887 699.05434039 -337.17993774 714.04801475 -334.81665039 729.31567383 C-334.63972656 730.49516602 -334.46280273 731.6746582 -334.28051758 732.88989258 C-324.55267172 796.6669269 -297.46162545 856.69899715 -254.81665039 905.31567383 C-254.23012695 906.00145508 -253.64360352 906.68723633 -253.03930664 907.39379883 C-245.47959929 916.19189345 -237.73531164 925.20324769 -228.80493164 932.63598633 C-226.41472164 934.65522071 -224.16065098 936.79941541 -221.87915039 938.94067383 C-203.56974857 955.54920225 -182.40241949 969.78008998 -160.59643555 981.35961914 C-158.85668421 982.29416869 -157.13897196 983.26938286 -155.42211914 984.24536133 C-113.48021304 1007.68763881 -61.92733155 1022.42717224 -13.76196289 1022.48364258 C-12.73972626 1022.48697098 -11.71748962 1022.49029938 -10.66427612 1022.49372864 C-8.51129602 1022.49875834 -6.35830823 1022.5011382 -4.20532227 1022.50097656 C-0.98448094 1022.50314499 2.23600694 1022.52129392 5.45678711 1022.5402832 C23.29293441 1022.58959572 40.75130068 1021.23669405 58.37084961 1018.44067383 C59.36536133 1018.29243164 60.35987305 1018.14418945 61.38452148 1017.99145508 C77.07500757 1015.5531357 92.10702593 1011.68659472 107.12084961 1006.56567383 C107.90394501 1006.30144623 108.68704041 1006.03721863 109.49386597 1005.76498413 C120.54658398 1002.03236234 131.48935276 998.16086957 142.09545898 993.27661133 C144.30844298 992.25810045 146.53441399 991.27173534 148.76147461 990.28442383 C186.28457631 973.36696534 225.99603941 946.25452739 252.53881836 914.26879883 C254.54358135 911.88784516 256.67820833 909.64760664 258.80834961 907.37817383 C265.44911593 900.0914971 271.31484454 892.22853517 277.18334961 884.31567383 C277.64805664 883.69225098 278.11276367 883.06882812 278.59155273 882.42651367 C285.0509655 873.72438137 290.74856556 864.68870718 296.18334961 855.31567383 C302.10515987 856.92804791 307.04466337 859.9447836 312.30834961 863.00317383 C321.29358465 868.15663103 330.3531717 873.13733582 339.49584961 878.00317383 C348.49132278 882.79621597 357.45132416 887.64113844 366.34741211 892.61645508 C372.54876506 896.08457969 378.77346552 899.51048704 384.99584961 902.94067383 C387.50628657 904.32475161 390.01669652 905.70887837 392.52709961 907.09301758 C393.1586496 907.44119537 393.79019958 907.78937317 394.44088745 908.14810181 C398.84630635 910.57722527 403.2496415 913.01009549 407.65209961 915.44458008 C420.0298125 922.28732218 432.42707186 929.08995807 444.87133789 935.8112793 C451.26846206 939.26944573 457.64035639 942.7689165 463.99145508 946.31079102 C470.98126368 950.20856835 477.98757981 954.07622559 484.99584961 957.94067383 C486.24674609 958.63053151 487.49764126 959.32039155 488.74853516 960.01025391 C491.2926694 961.41326746 493.83687108 962.81615866 496.38110352 964.21899414 C501.28248392 966.92161714 506.18313681 969.6255583 511.08374023 972.32958984 C513.48727624 973.65579815 515.89092837 974.98179563 518.29467773 976.30761719 C523.78069133 979.33365723 529.26612265 982.36073219 534.74894714 985.39254761 C537.83089811 987.09672297 540.91327022 988.80013547 543.99584961 990.50317383 C544.8976445 991.00143677 544.8976445 991.00143677 545.81765747 991.50976562 C555.21280994 996.69867504 564.64277966 1001.8211289 574.08886719 1006.91674805 C581.52176578 1010.93504905 588.88288563 1015.06135415 596.18334961 1019.31567383 C592.86370566 1026.23658387 589.19738763 1032.81434648 585.12084961 1039.31567383 C584.55648193 1040.22067627 583.99211426 1041.12567871 583.41064453 1042.05810547 C565.48527599 1070.65220542 545.56914548 1098.06323613 523.58374023 1123.67700195 C522.17538359 1125.32499529 520.77978103 1126.98307059 519.38647461 1128.64379883 C507.05894243 1143.2830067 493.69059322 1156.89836953 480.18334961 1170.44067383 C479.59899139 1171.02771088 479.01463318 1171.61474792 478.41256714 1172.21957397 C472.17759113 1178.47623609 465.91100563 1184.58456054 459.18334961 1190.31567383 C457.4076474 1191.93535199 455.63626653 1193.55979101 453.87084961 1195.19067383 C448.47180397 1200.11311406 442.86941464 1204.73118265 437.18334961 1209.31567383 C435.39123561 1210.79429849 433.5995716 1212.27346871 431.80834961 1213.75317383 C425.70054217 1218.74107299 419.4917894 1223.58519053 413.18334961 1228.31567383 C412.57265625 1228.77361328 411.96196289 1229.23155273 411.33276367 1229.70336914 C390.20038934 1245.44800761 368.07372918 1260.25357358 345.18334961 1273.31567383 C343.67538818 1274.17854004 343.67538818 1274.17854004 342.13696289 1275.05883789 C308.02345577 1294.49245682 272.97102362 1310.679498 236.18334961 1324.31567383 C235.10649902 1324.71802246 234.02964844 1325.12037109 232.92016602 1325.53491211 C220.51179761 1330.15872425 208.13652368 1334.43176754 195.31616211 1337.75512695 C192.36851277 1338.52982966 189.43608284 1339.3557259 186.50244141 1340.18164062 C183.48068804 1341.0306608 180.45442075 1341.8629429 177.42797852 1342.69506836 C175.9603781 1343.10083737 174.4938496 1343.51050875 173.02856445 1343.92456055 C138.95059993 1353.54703017 103.36270801 1358.74733448 68.18334961 1362.31567383 C67.2065625 1362.41477051 66.22977539 1362.51386719 65.22338867 1362.6159668 C62.37745055 1362.89941344 59.53083109 1363.17320151 56.68334961 1363.44067383 C55.88461426 1363.51632568 55.08587891 1363.59197754 54.26293945 1363.66992188 C38.49404425 1365.07587314 22.75772447 1365.52157625 6.93334961 1365.50317383 C5.96246399 1365.50256958 4.99157837 1365.50196533 3.99127197 1365.50134277 C-27.4896111 1365.44876885 -58.61795372 1363.52771826 -89.81665039 1359.31567383 C-90.48680176 1359.22586243 -91.15695312 1359.13605103 -91.84741211 1359.04351807 C-171.08737193 1348.35674029 -247.13272942 1322.65644849 -433.81665039 1207.31567383 C-434.39398926 1206.83888184 -434.97132813 1206.36208984 -435.56616211 1205.87084961 C-442.73108665 1199.93574105 -449.65927112 1193.78863045 -456.45336914 1187.43286133 C-458.26061171 1185.74259238 -460.08379824 1184.07940159 -461.9375 1182.43994141 C-468.93320241 1176.24849076 -475.55766462 1169.72773978 -482.14941406 1163.11328125 C-484.00807147 1161.24924139 -485.87204653 1159.39063871 -487.73657227 1157.5324707 C-493.64496631 1151.62737717 -499.40789012 1145.68744089 -504.81665039 1139.31567383 C-506.43632856 1137.53997162 -508.06076757 1135.76859075 -509.69165039 1134.00317383 C-514.61283386 1128.60097242 -519.23166692 1123.00337484 -523.81665039 1117.31567383 C-524.82599133 1116.08562367 -525.83647637 1114.85651173 -526.84790039 1113.62817383 C-542.66640832 1094.37707828 -557.22154855 1074.19349728 -570.81665039 1053.31567383 C-571.25912109 1052.63939941 -571.7015918 1051.963125 -572.1574707 1051.26635742 C-602.88134197 1004.11961346 -626.02917033 953.259446 -644.81665039 900.31567383 C-645.16743652 899.32809082 -645.51822266 898.34050781 -645.87963867 897.32299805 C-650.02917112 885.53715877 -653.42574582 873.65203721 -656.48071289 861.53833008 C-657.51771273 857.43201547 -658.65886198 853.37191249 -659.87915039 849.31567383 C-671.11550404 810.24275683 -676.71726982 767.78261215 -678.81665039 727.31567383 C-678.85868591 726.53118866 -678.90072144 725.74670349 -678.94403076 724.93844604 C-681.70616508 672.38278879 -679.22170283 621.38135539 -671.15258789 569.47845459 C-670.85403051 567.55632871 -670.55965052 565.63355501 -670.26586914 563.71069336 C-661.2474204 505.338234 -641.86283642 447.68790357 -616.81665039 394.31567383 C-616.36999023 393.35677246 -615.92333008 392.39787109 -615.46313477 391.40991211 C-597.56801306 353.09522156 -576.13149601 316.22149404 -550.81665039 282.31567383 C-549.78783303 280.92647793 -548.75918658 279.53715543 -547.73071289 278.14770508 C-538.27987646 265.42466956 -528.54041791 252.98144075 -518.21704102 240.9543457 C-516.80868437 239.30635236 -515.41308181 237.64827706 -514.01977539 235.98754883 C-501.84460491 221.52966394 -488.65621473 208.06629231 -475.31665039 194.69067383 C-474.75621033 194.12755493 -474.19577026 193.56443604 -473.61834717 192.98425293 C-468.06484801 187.41060511 -462.50799903 181.88716983 -456.52026367 176.77416992 C-453.94505324 174.56948274 -451.4847326 172.2512581 -449.00415039 169.94067383 C-444.41105664 165.70256681 -439.70394817 161.6596719 -434.83227539 157.74145508 C-432.62022823 155.96207518 -430.424582 154.1693683 -428.23852539 152.35864258 C-418.04851544 143.94490845 -407.54653782 136.02678109 -396.81665039 128.31567383 C-396.01211426 127.73672363 -395.20757813 127.15777344 -394.37866211 126.5612793 C-320.90827735 73.90186969 -235.70904004 34.29666095 -130.19555664 12.32348633 C-126.89274514 11.72789737 -123.64712459 11.05686062 -120.39868164 10.21411133 C-117.4986411 9.4867293 -114.9071037 9.02089551 -111.94165039 8.81567383 C-108.68016012 8.58839228 -105.57343339 8.07873952 -102.37915039 7.40942383 C-95.85649278 6.07477847 -89.29002407 5.18638706 -82.69165039 4.31567383 C-80.94368164 4.06817383 -80.94368164 4.06817383 -79.16040039 3.81567383 C-52.91444863 0.3522905 -26.43179857 -0.03977608 0 0 Z " fill="#FEFEFE" transform="translate(923.816650390625,341.684326171875)"/>
<path d="M0 0 C2.10011092 -0.00959722 4.19919486 -0.04061788 6.29907227 -0.07226562 C37.34977903 -0.31503126 62.4975487 14.88303529 88.69165039 29.82617188 C95.12515461 33.49303518 101.59749213 37.08835529 108.07446289 40.67773438 C122.00060321 48.40061031 135.89423729 56.18068576 149.78344727 63.96972656 C161.57642574 70.58229799 173.37772705 77.17918792 185.19946289 83.74023438 C199.08228006 91.44517802 212.93486486 99.20346961 226.78344727 106.96972656 C239.71152166 114.21877017 252.65305452 121.44266732 265.61303711 128.63452148 C274.18248448 133.39197435 282.73634005 138.17673638 291.28540039 142.97070312 C298.91319247 147.24572513 306.55369944 151.49744802 314.19946289 155.74023438 C323.90626381 161.12673146 333.59865517 166.53819683 343.28100586 171.96850586 C350.95062653 176.26748236 358.63531018 180.53880926 366.32446289 184.80273438 C374.59612429 189.39019567 382.84821396 194.00934895 391.07446289 198.67773438 C399.74660883 203.59834378 408.46334058 208.43454084 417.19946289 213.24023438 C426.8700869 218.55999223 436.50690053 223.93450357 446.10668945 229.38134766 C456.78282663 235.43338989 467.5179486 241.37868025 478.2512207 247.32861328 C493.61351763 255.8450948 508.96517758 264.37986034 524.28588867 272.97094727 C531.91349126 277.24593568 539.55385843 281.49753624 547.19946289 285.74023438 C556.90626381 291.12673146 566.59865517 296.53819683 576.28100586 301.96850586 C583.95062653 306.26748236 591.63531018 310.53880926 599.32446289 314.80273438 C607.59612429 319.39019567 615.84821396 324.00934895 624.07446289 328.67773438 C632.74660883 333.59834378 641.46334058 338.43454084 650.19946289 343.24023438 C659.8700869 348.55999223 669.50690053 353.93450357 679.10668945 359.38134766 C690.92606811 366.08146565 702.81630142 372.65414319 714.69946289 379.24023438 C728.49555133 386.88654102 742.27993719 394.54983938 756.00170898 402.32885742 C764.47849282 407.12876133 772.99283722 411.85974196 781.51196289 416.58398438 C789.08481639 420.78441678 796.64648466 425.00417567 804.19946289 429.24023438 C812.85489867 434.09393539 821.52263606 438.92488115 830.19946289 443.74023438 C834.69986085 446.23951851 839.19977065 448.73967993 843.69946289 451.24023438 C844.81514648 451.85995117 845.93083008 452.47966797 847.08032227 453.11816406 C853.40918769 456.63645297 859.72879287 460.17026782 866.03198242 463.734375 C867.6892396 464.66993809 869.34868049 465.60165731 871.01147461 466.52734375 C884.41807986 474.00573042 895.97337747 483.27896163 905.69946289 495.24023438 C904.39759511 499.14583771 903.01300345 499.48673753 899.46118164 501.47070312 C898.34549805 502.10041016 897.22981445 502.73011719 896.08032227 503.37890625 C894.84924279 504.06192163 893.61812183 504.74486224 892.38696289 505.42773438 C891.11493199 506.14225708 889.84345554 506.85776767 888.57250977 507.57421875 C885.92865335 509.06358416 883.28244812 510.54864565 880.63452148 512.03076172 C874.63350911 515.39427759 868.66837718 518.82016889 862.69946289 522.24023438 C860.3665141 523.57424098 858.03298758 524.90723548 855.69946289 526.24023438 C854.53278558 526.90688242 853.36611891 527.57354908 852.19946289 528.24023438 C817.19946284 548.24023441 817.19946284 548.24023441 815.44950867 549.24020386 C814.2826844 549.90696349 813.11586515 550.57373188 811.9490509 551.24050903 C809.03483643 552.90582525 806.12053547 554.57098974 803.20605469 556.23583984 C797.92670625 559.25178043 792.64802345 562.26885779 787.37252808 565.29153442 C784.41943273 566.98351278 781.465833 568.67460902 778.51196289 570.36523438 C777.93095825 570.69779236 777.34995361 571.03035034 776.75134277 571.37298584 C768.51161138 576.08693336 760.24149447 580.74391432 751.94946289 585.36523438 C742.80500719 590.46238036 733.74587197 595.69022184 724.71801758 600.99072266 C716.55827793 605.76946524 708.31738182 610.39200123 700.05493164 614.99023438 C692.88592594 618.9898789 685.77853526 623.08371482 678.69946289 627.24023438 C669.55033 632.61220231 660.32543158 637.83099963 651.05493164 642.99023438 C643.8859139 646.98988562 636.77881634 651.08417869 629.69946289 655.24023438 C621.11595764 660.2731273 612.49400536 665.23238861 603.82446289 670.11523438 C602.74165039 670.72882812 601.65883789 671.34242188 600.54321289 671.97460938 C599.54547852 672.5340625 598.54774414 673.09351563 597.51977539 673.66992188 C596.19357178 674.41604736 596.19357178 674.41604736 594.84057617 675.17724609 C592.69946289 676.24023438 592.69946289 676.24023438 590.69946289 676.24023438 C590.28438477 675.47324219 589.86930664 674.70625 589.44165039 673.91601562 C571.43337289 641.4785116 548.24128668 611.00451999 524.09985352 582.87890625 C522.69149687 581.23091291 521.29589431 579.57283761 519.90258789 577.91210938 C507.72741741 563.45422449 494.53902723 549.99085286 481.19946289 536.61523438 C480.63902283 536.05211548 480.07858276 535.48899658 479.50115967 534.90881348 C473.41303509 528.79860056 467.26401457 522.84262402 460.69946289 517.24023438 C458.92376068 515.62055621 457.15237982 513.9961172 455.38696289 512.36523438 C449.98791726 507.44279415 444.38552792 502.82472556 438.69946289 498.24023438 C436.9073489 496.76160971 435.11568488 495.2824395 433.32446289 493.80273438 C427.21665545 488.81483521 421.00790268 483.97071768 414.69946289 479.24023438 C414.08876953 478.78229492 413.47807617 478.32435547 412.84887695 477.85253906 C402.62674292 470.23655601 392.1058103 463.07452725 381.51196289 455.99023438 C380.88919464 455.57243713 380.26642639 455.15463989 379.62478638 454.72418213 C370.48391067 448.60035398 361.18145834 442.82026594 351.69946289 437.24023438 C350.35621948 436.44625244 350.35621948 436.44625244 348.98583984 435.63623047 C306.93210428 410.92596457 262.62928603 391.57968187 216.52770996 375.86395264 C214.88841509 375.30469663 213.25039666 374.74170241 211.61254883 374.17822266 C182.9759936 364.39227586 153.37948577 357.94627627 123.63897705 352.59051514 C121.83990442 352.26559844 120.04185331 351.93503934 118.24389648 351.60400391 C102.85150797 348.78353377 87.3977161 346.86699251 71.81542969 345.44262695 C69.48619678 345.21983544 67.16073988 344.96831591 64.83422852 344.71875 C47.3397475 342.94699012 29.88486333 342.93221992 12.3215332 342.97949219 C8.0777205 342.99081279 3.83416066 342.98414281 -0.40964317 342.97262669 C-28.15255264 342.90854002 -55.74047311 343.69393969 -83.26733398 347.47241211 C-85.78476244 347.81771632 -88.30405088 348.14609665 -90.82397461 348.47265625 C-92.44909456 348.68724457 -94.0741004 348.90269937 -95.69897461 349.11914062 C-96.44134369 349.21707413 -97.18371277 349.31500763 -97.94857788 349.41590881 C-101.74350332 349.90963219 -101.74350332 349.90963219 -105.30053711 351.24023438 C-107.35953804 351.5175815 -109.42312004 351.76105379 -111.48803711 351.99023438 C-121.19109497 353.18834901 -130.66530416 355.36871 -140.18969727 357.53710938 C-143.27932381 358.23543966 -146.37317346 358.91144729 -149.46850586 359.58398438 C-166.64301413 363.36523349 -183.50272432 368.06487629 -200.30053711 373.24023438 C-202.13310059 373.80436035 -202.13310059 373.80436035 -204.00268555 374.37988281 C-235.39788598 384.17559034 -265.71567913 396.92482508 -295.30053711 411.24023438 C-296.2099707 411.6764209 -297.1194043 412.11260742 -298.05639648 412.56201172 C-311.81564962 419.18100727 -325.09830206 426.57780644 -338.30053711 434.24023438 C-339.13520508 434.72186035 -339.96987305 435.20348633 -340.82983398 435.69970703 C-373.17470093 454.4328844 -403.52461697 476.43325438 -432.30053711 500.24023438 C-433.16654541 500.95542236 -433.16654541 500.95542236 -434.05004883 501.68505859 C-441.21497337 507.62016715 -448.14315783 513.76727775 -454.93725586 520.12304688 C-456.75056085 521.81884097 -458.57999664 523.48766087 -460.43896484 525.13354492 C-467.27575438 531.18882816 -473.76239177 537.54861919 -480.20605469 544.01538086 C-481.99228381 545.80699388 -483.78383058 547.59316492 -485.57592773 549.37890625 C-491.36618225 555.16579842 -496.99422361 561.0010652 -502.30053711 567.24023438 C-503.92021527 569.01593658 -505.54465429 570.78731745 -507.17553711 572.55273438 C-512.09672058 577.95493578 -516.71555364 583.55253336 -521.30053711 589.24023438 C-522.30987805 590.47028454 -523.32036309 591.69939648 -524.33178711 592.92773438 C-540.14786778 612.17587595 -554.72487569 632.35303696 -568.30053711 653.24023438 C-568.76427734 653.95373047 -569.22801758 654.66722656 -569.70581055 655.40234375 C-577.69941406 667.75852179 -585.17135886 680.36721894 -592.30053711 693.24023438 C-592.88206543 694.28824219 -593.46359375 695.33625 -594.06274414 696.41601562 C-623.32064342 749.40558154 -644.38135505 805.6309631 -659.30053711 864.24023438 C-659.54400879 865.18721191 -659.78748047 866.13418945 -660.03833008 867.10986328 C-664.54427315 884.86546408 -667.1889366 902.9866988 -669.96594238 921.07501221 C-670.274558 923.07211894 -670.59043733 925.06809959 -670.90698242 927.06396484 C-672.18244488 935.10652628 -673.31643057 943.1567372 -674.30053711 951.24023438 C-674.45151855 952.47644531 -674.6025 953.71265625 -674.75805664 954.98632812 C-679.70121121 997.68835808 -678.44943497 1041.43381477 -675.30053711 1084.24023438 C-675.23640625 1085.21605469 -675.17227539 1086.191875 -675.10620117 1087.19726562 C-672.3524287 1128.70610712 -664.10709977 1171.38811046 -651.94213867 1211.11230469 C-651.29736386 1213.25075876 -650.68234776 1215.39585096 -650.07397461 1217.54492188 C-640.43758056 1251.22158319 -627.40886254 1283.91026729 -612.54223633 1315.58935547 C-611.40045162 1318.02692889 -610.27172889 1320.46999064 -609.14819336 1322.91601562 C-604.54829719 1332.88264391 -599.52075387 1342.58525014 -594.30053711 1352.24023438 C-596.66325106 1354.85735724 -599.13489564 1356.41345187 -602.21850586 1358.10351562 C-603.71027344 1358.92819336 -603.71027344 1358.92819336 -605.23217773 1359.76953125 C-606.30661133 1360.35798828 -607.38104492 1360.94644531 -608.48803711 1361.55273438 C-610.7742012 1362.81784191 -613.05933303 1364.08481637 -615.34350586 1365.35351562 C-616.21711258 1365.83850021 -616.21711258 1365.83850021 -617.10836792 1366.33328247 C-622.88911962 1369.5510702 -628.59806944 1372.88631608 -634.30053711 1376.24023438 C-643.45063423 1381.61376725 -652.67723928 1386.83296902 -661.94946289 1391.99243164 C-669.07681978 1395.96839072 -676.13992803 1400.04187435 -683.17553711 1404.17773438 C-692.77619215 1409.819226 -702.48005963 1415.25236052 -712.22924805 1420.63232422 C-720.68805523 1425.31267024 -729.04890351 1430.14209771 -737.38256836 1435.04101562 C-744.47214859 1439.19923705 -751.61859806 1443.24389567 -758.80053711 1447.24023438 C-767.02256612 1451.81590011 -775.18628065 1456.47605889 -783.30053711 1461.24023438 C-792.52488811 1466.65474136 -801.82068183 1471.92654132 -811.16259766 1477.13525391 C-820.29191453 1482.22648046 -829.37148625 1487.40065912 -838.43920898 1492.60058594 C-843.31916324 1495.39698293 -848.20335825 1498.18595811 -853.08709717 1500.97573853 C-856.05158101 1502.66918349 -859.01592776 1504.36286836 -861.98022461 1506.05664062 C-862.57574127 1506.39690781 -863.17125793 1506.73717499 -863.78482056 1507.0877533 C-867.54675626 1509.23746239 -871.30801239 1511.38835592 -875.06880188 1513.54006958 C-877.59997879 1514.98821439 -880.13138684 1516.43595491 -882.66281128 1517.88366699 C-883.860782 1518.56893132 -885.05864135 1519.25439041 -886.25637817 1519.94006348 C-889.93460116 1522.04570861 -893.61668686 1524.14445319 -897.30053711 1526.24023438 C-898.19981934 1526.75666504 -899.09910156 1527.2730957 -900.02563477 1527.80517578 C-900.83436035 1528.26456543 -901.64308594 1528.72395508 -902.47631836 1529.19726562 C-903.17281494 1529.59534424 -903.86931152 1529.99342285 -904.58691406 1530.40356445 C-906.30053711 1531.24023438 -906.30053711 1531.24023438 -908.30053711 1531.24023438 C-913.45046632 1522.79035052 -917.52500027 1514.80347023 -920.30053711 1505.24023438 C-920.64159341 1504.33515871 -920.9826497 1503.43008305 -921.33404104 1502.49758084 C-922.38270172 1498.96331799 -922.55172446 1496.0859601 -922.55353677 1492.40394086 C-922.55658987 1491.73659503 -922.55964296 1491.06924919 -922.56278858 1490.38168076 C-922.57058894 1488.14305745 -922.56415646 1485.90470413 -922.55780602 1483.66607952 C-922.56049913 1482.03895664 -922.5640668 1480.411835 -922.56843048 1478.78471574 C-922.5779095 1474.29478353 -922.57488103 1469.80493221 -922.56987494 1465.31499596 C-922.56661512 1460.4371713 -922.57488519 1455.55936419 -922.58169329 1450.68154508 C-922.59201452 1442.12603244 -922.59483341 1433.57054244 -922.59278107 1425.01502419 C-922.58973651 1412.29230998 -922.59804305 1399.56962091 -922.60853032 1386.84691159 C-922.62789599 1362.8019391 -922.63349954 1338.75697511 -922.63464443 1314.71199574 C-922.63556284 1296.14248678 -922.63967598 1277.57298116 -922.64604568 1259.00347328 C-922.64784074 1253.6618798 -922.64962056 1248.32028632 -922.65139544 1242.97869283 C-922.65161662 1242.31505467 -922.6518378 1241.65141651 -922.65206568 1240.9676681 C-922.66471577 1202.93209305 -922.67296374 1164.89651914 -922.67204857 1126.86094189 C-922.67201701 1125.43726409 -922.67198554 1124.0135863 -922.67195415 1122.5899085 C-922.67180738 1116.16211997 -922.67163105 1109.73433145 -922.67144638 1103.30654292 C-922.67136414 1100.44023447 -922.67128384 1097.57392602 -922.67120376 1094.70761756 C-922.67116297 1093.272977 -922.67112093 1091.83833643 -922.67107764 1090.40369586 C-922.66971764 1045.05533143 -922.68434235 999.70699825 -922.7121582 954.35864258 C-922.71916038 942.93673048 -922.72609937 931.51481835 -922.732687 920.092906 C-922.73309274 919.38959128 -922.73349849 918.68627657 -922.73391654 917.96164929 C-922.74635017 896.27831606 -922.7538784 874.5949854 -922.75640297 852.91164875 C-922.75648287 852.23067679 -922.75656277 851.54970484 -922.7566451 850.84809736 C-922.75835182 835.89756809 -922.75887398 820.94703898 -922.75830434 805.99650962 C-922.75808736 799.98066271 -922.75799286 793.9648158 -922.75792313 787.94896889 C-922.75789982 786.63285167 -922.75787651 785.31673446 -922.75785249 783.9607349 C-922.75779094 762.77723292 -922.77056511 741.59375732 -922.78778766 720.41026318 C-922.80474066 699.11778612 -922.80672063 677.82534765 -922.79356901 656.53286757 C-922.78617711 643.88330283 -922.78984501 631.23385532 -922.80945369 618.58430299 C-922.8214502 610.13097194 -922.8188662 601.67772582 -922.8045127 593.22439867 C-922.7967469 588.41022614 -922.79520607 583.59628051 -922.8114274 578.78212395 C-922.82608353 574.39394333 -922.82199817 570.00617661 -922.80357967 565.61801381 C-922.80016466 564.04863576 -922.80330247 562.47922451 -922.81418208 560.90988046 C-922.99716788 532.59618841 -911.95401892 507.47781156 -892.30053711 487.24023438 C-878.92310888 474.25930789 -861.75747446 466.05853472 -845.61889648 457.08691406 C-840.33988737 454.14912529 -835.070545 451.19412944 -829.80053711 448.24023438 C-827.71725378 447.07347842 -825.63392035 445.90681191 -823.55053711 444.74023438 C-822.00366211 443.87398438 -822.00366211 443.87398438 -820.42553711 442.99023438 C-717.30053711 385.24023438 -614.17553711 327.49023438 -111.05053711 45.74023438 C-109.50281616 44.87350098 -109.50281616 44.87350098 -107.92382812 43.98925781 C-105.84621362 42.82580668 -103.768577 41.66239505 -101.69091797 40.49902344 C-95.31561978 36.92913644 -88.94113482 33.35780312 -82.56738281 29.78515625 C-79.42225026 28.02340276 -76.27550393 26.26455743 -73.12866211 24.50585938 C-69.48480677 22.4682555 -65.84915043 20.41751172 -62.22241211 18.34960938 C-42.24677149 7.00070883 -23.19603984 0.0637911 0 0 Z " fill="#659AD2" transform="translate(922.300537109375,-0.240234375)"/>
<path d="M0 0 C0.57105469 1.05574219 1.14210938 2.11148437 1.73046875 3.19921875 C22.94747145 42.08963746 48.74967956 78.75015115 77.59960938 112.36132812 C79.00796602 114.00932146 80.40356858 115.66739677 81.796875 117.328125 C93.81963242 131.60463582 106.82819085 144.91605796 120 158.125 C120.53652191 158.66420074 121.07304382 159.20340149 121.62582397 159.75894165 C127.03152113 165.18513493 132.45307314 170.54310989 138.27880859 175.52392578 C140.85841539 177.7361673 143.32586739 180.05877998 145.8125 182.375 C150.40559375 186.61310701 155.11270222 190.65600193 159.984375 194.57421875 C162.19642216 196.35359865 164.39206839 198.14630553 166.578125 199.95703125 C176.76813495 208.37076538 187.27011257 216.28889274 198 224 C199.2068042 224.86842529 199.2068042 224.86842529 200.43798828 225.75439453 C258.42724828 267.31781093 324.85340298 302.43855166 393.70117188 322.33398438 C395.45433961 322.84191148 397.20524071 323.35766892 398.95507812 323.87695312 C414.68498579 328.54488443 430.44999824 332.76010329 446.48681641 336.23486328 C448.89998596 336.7604278 451.31103483 337.29579589 453.72021484 337.83935547 C486.98811485 345.33581704 520.93929779 350.15838488 555 352 C556.69665234 352.11009676 558.39326775 352.22076422 560.08984375 352.33203125 C590.57473435 354.15004347 621.60605346 353.93314085 652 351 C653.14597656 350.89284668 654.29195312 350.78569336 655.47265625 350.67529297 C673.05747721 349.00298234 690.55037118 346.73764178 708 344 C708.64862 343.89901001 709.29723999 343.79802002 709.96551514 343.69396973 C732.69839643 340.1426687 754.81058891 335.05902915 777 329 C778.03648682 328.71938721 779.07297363 328.43877441 780.14086914 328.1496582 C871.74502651 303.3090592 959.69184275 258.37185276 1031.91796875 196.61328125 C1034.73635029 194.20918687 1037.61171953 191.88232006 1040.5 189.5625 C1046.29877407 184.84413799 1051.73619708 179.7756192 1057.1887207 174.66772461 C1058.48975437 173.46980562 1059.80520414 172.28747326 1061.12963867 171.11547852 C1068.12243024 164.92693311 1074.74390735 158.40916286 1081.33276367 151.79760742 C1083.19142108 149.93356756 1085.05539614 148.07496488 1086.91992188 146.21679688 C1092.82831592 140.31170334 1098.59123973 134.37176706 1104 128 C1105.61967817 126.22429779 1107.24411718 124.45291693 1108.875 122.6875 C1113.79618347 117.28529859 1118.41501653 111.68770102 1123 106 C1124.00934094 104.76994984 1125.01982598 103.5408379 1126.03125 102.3125 C1145.8533026 78.18909783 1163.56867776 52.62298189 1179.921875 26.04296875 C1180.43041016 25.21845215 1180.93894531 24.39393555 1181.46289062 23.54443359 C1182.52821966 21.78095532 1183.56693214 20.00122776 1184.58398438 18.20947266 C1185.09767578 17.31147949 1185.61136719 16.41348633 1186.140625 15.48828125 C1186.59469727 14.67528564 1187.04876953 13.86229004 1187.51660156 13.0246582 C1189.22251895 10.69628873 1190.20629834 9.75387122 1193 9 C1195.37158203 9.80761719 1195.37158203 9.80761719 1198.0078125 11.296875 C1199.47287231 12.10862183 1199.47287231 12.10862183 1200.9675293 12.93676758 C1202.00949463 13.53513428 1203.05145996 14.13350098 1204.125 14.75 C1205.20885986 15.35545654 1206.29271973 15.96091309 1207.40942383 16.5847168 C1209.60467819 17.81262589 1211.79621532 19.04720549 1213.98388672 20.28857422 C1217.19105074 22.10840745 1220.41350221 23.89840704 1223.64135742 25.68115234 C1225.77166192 26.85903458 1227.89780037 28.04418615 1230.0234375 29.23046875 C1237.51963257 33.40834398 1245.03895297 37.54451978 1252.55419922 41.68798828 C1253.81738282 42.38444009 1255.08056641 43.08089191 1256.34375 43.77734375 C1257.29110519 44.29962555 1257.29110519 44.29962555 1258.25759888 44.8324585 C1262.66299483 47.26157651 1267.06631178 49.69443266 1271.46875 52.12890625 C1283.84646289 58.97164835 1296.24372225 65.77428424 1308.68798828 72.49560547 C1315.08511245 75.9537719 1321.45700678 79.45324267 1327.80810547 82.99511719 C1334.79791407 86.89289452 1341.8042302 90.76055176 1348.8125 94.625 C1350.06339648 95.31485768 1351.31429165 96.00471772 1352.56518555 96.69458008 C1355.10931979 98.09759363 1357.65352147 99.50048483 1360.19775391 100.90332031 C1365.09913431 103.60594332 1369.9997872 106.30988447 1374.90039062 109.01391602 C1377.30392663 110.34012432 1379.70757876 111.6661218 1382.11132812 112.99194336 C1387.59736162 116.01799438 1393.08281015 119.04508518 1398.56565857 122.0769043 C1411.57704663 129.27161859 1424.60592829 136.42980285 1437.68798828 143.49560547 C1444.07559124 146.94862491 1450.43859532 150.4418601 1456.77954102 153.97973633 C1463.40771677 157.67714128 1470.05430349 161.340823 1476.70196533 165.00302124 C1487.49716709 170.95054115 1498.27790661 176.92133288 1509 183 C1509.27972656 182.11957031 1509.55945312 181.23914062 1509.84765625 180.33203125 C1510.88552208 177.33101583 1512.07541247 174.55170275 1513.4375 171.6875 C1515.66828424 166.86953404 1517.42181288 162.06681128 1519 157 C1519.66 157 1520.32 157 1521 157 C1519.85458297 163.12282317 1518.19090483 168.57169863 1515.5 174.1875 C1515.15324219 174.91582031 1514.80648438 175.64414063 1514.44921875 176.39453125 C1510.75855445 183.88018958 1506.15310604 190.45887991 1501 197 C1500.36578125 197.81855469 1499.7315625 198.63710937 1499.078125 199.48046875 C1489.08294044 211.54730481 1475.49512243 219.46315083 1462 227 C1460.07924339 228.08170514 1458.15868116 229.16375548 1456.23828125 230.24609375 C1450.91715139 233.23851636 1445.58673567 236.21403585 1440.25390625 239.18554688 C1434.9983769 242.11615118 1429.74942951 245.05848799 1424.5 248 C1418.22748707 251.51337326 1411.95445871 255.02581755 1405.6796875 258.53515625 C1395.60795878 264.16934113 1385.54338657 269.81542249 1375.5 275.5 C1364.40527296 281.77963839 1353.28386607 288.01100698 1342.15722656 294.23388672 C1336.93706291 297.15398136 1331.71859227 300.07709832 1326.5 303 C1320.22741152 306.51323852 1313.95445881 310.02581749 1307.6796875 313.53515625 C1297.60795878 319.16934113 1287.54338657 324.81542249 1277.5 330.5 C1266.40527296 336.77963839 1255.28386607 343.01100698 1244.15722656 349.23388672 C1238.93706291 352.15398136 1233.71859227 355.07709832 1228.5 358 C1222.22741152 361.51323852 1215.95445881 365.02581749 1209.6796875 368.53515625 C1199.60795878 374.16934113 1189.54338657 379.81542249 1179.5 385.5 C1168.40527296 391.77963839 1157.28386607 398.01100698 1146.15722656 404.23388672 C1140.93706291 407.15398136 1135.71859227 410.07709832 1130.5 413 C1124.22741152 416.51323852 1117.95445881 420.02581749 1111.6796875 423.53515625 C1101.60795878 429.16934113 1091.54338657 434.81542249 1081.5 440.5 C1068.30355826 447.96921324 1055.06868279 455.369364 1041.83398438 462.77050781 C1030.71029032 468.99194386 1019.59187595 475.22197534 1008.5 481.5 C997.40527296 487.77963839 986.28386607 494.01100698 975.15722656 500.23388672 C969.93706291 503.15398136 964.71859227 506.07709832 959.5 509 C953.22741152 512.51323852 946.95445881 516.02581749 940.6796875 519.53515625 C930.60795878 525.16934113 920.54338657 530.81542249 910.5 536.5 C899.40527296 542.77963839 888.28386607 549.01100698 877.15722656 555.23388672 C871.93706291 558.15398136 866.71859227 561.07709832 861.5 564 C855.22741152 567.51323852 848.95445881 571.02581749 842.6796875 574.53515625 C832.60795878 580.16934113 822.54338657 585.81542249 812.5 591.5 C801.40527296 597.77963839 790.28386607 604.01100698 779.15722656 610.23388672 C773.93706291 613.15398136 768.71859227 616.07709832 763.5 619 C757.22741152 622.51323852 750.95445881 626.02581749 744.6796875 629.53515625 C734.60795878 635.16934113 724.54338657 640.81542249 714.5 646.5 C704.47135617 652.17623309 694.42220404 657.81511712 684.36328125 663.4375 C680.02169146 665.86508446 675.68655711 668.30373126 671.35546875 670.75 C639.72323777 688.6012731 608.28556658 702.41541109 571.02832031 692.81884766 C569.0068951 692.24622066 567.00421944 691.62986856 565 691 C563.80375 690.65710937 562.6075 690.31421875 561.375 689.9609375 C547.31664879 685.34431793 534.55695302 677.2774788 521.746521 669.99200439 C519.13294925 668.50752487 516.51366191 667.03323763 513.89453125 665.55859375 C510.14783732 663.44701306 506.40462152 661.32945941 502.6640625 659.20703125 C496.66278691 655.80449429 490.64534767 652.43115011 484.625 649.0625 C483.58714355 648.48169678 482.54928711 647.90089355 481.47998047 647.30249023 C478.3201931 645.53462469 475.16014557 643.76722515 472 642 C458.8708703 634.65789261 445.75034094 627.30171411 432.65917969 619.89208984 C422.51007325 614.15088304 412.33414242 608.4578339 402.15722656 602.76611328 C395.89671092 599.26405868 389.63851388 595.75786247 383.37988281 592.25244141 C378.14724952 589.32187215 372.91405778 586.39230956 367.6796875 583.46484375 C356.65829479 577.2994112 345.64954681 571.1126603 334.65917969 564.89208984 C324.51007325 559.15088304 314.33414242 553.4578339 304.15722656 547.76611328 C297.89671092 544.26405868 291.63851388 540.75786247 285.37988281 537.25244141 C280.14724952 534.32187215 274.91405778 531.39230956 269.6796875 528.46484375 C258.65829479 522.2994112 247.64954681 516.1126603 236.65917969 509.89208984 C225.46050486 503.55715696 214.22961975 497.2798583 203 491 C189.8708703 483.65789261 176.75034094 476.30171411 163.65917969 468.89208984 C153.51007325 463.15088304 143.33414242 457.4578339 133.15722656 451.76611328 C126.89671092 448.26405868 120.63851388 444.75786247 114.37988281 441.25244141 C109.14724952 438.32187215 103.91405778 435.39230956 98.6796875 432.46484375 C87.65829479 426.2994112 76.64954681 420.1126603 65.65917969 413.89208984 C55.51007325 408.15088304 45.33414242 402.4578339 35.15722656 396.76611328 C28.89671092 393.26405868 22.63851388 389.75786247 16.37988281 386.25244141 C11.14724952 383.32187215 5.91405778 380.39230956 0.6796875 377.46484375 C-10.34170521 371.2994112 -21.35045319 365.1126603 -32.34082031 358.89208984 C-42.48992675 353.15088304 -52.66585758 347.4578339 -62.84277344 341.76611328 C-69.10328908 338.26405868 -75.36148612 334.75786247 -81.62011719 331.25244141 C-86.85275048 328.32187215 -92.08594222 325.39230956 -97.3203125 322.46484375 C-108.34170521 316.2994112 -119.35045319 310.1126603 -130.34082031 303.89208984 C-140.48992675 298.15088304 -150.66585758 292.4578339 -160.84277344 286.76611328 C-167.10328908 283.26405868 -173.36148612 279.75786247 -179.62011719 276.25244141 C-184.85275048 273.32187215 -190.08594222 270.39230956 -195.3203125 267.46484375 C-206.33970913 261.30052781 -217.34839036 255.118239 -228.33422852 248.89428711 C-233.2879127 246.08998659 -238.24884334 243.29971489 -243.22265625 240.53125 C-284.29512153 217.66995179 -284.29512153 217.66995179 -294 209 C-294.65097656 208.48953125 -295.30195313 207.9790625 -295.97265625 207.453125 C-311.23607747 195.19383639 -322.78958301 175.04366767 -327 156 C-326.6171875 153.58203125 -326.6171875 153.58203125 -326 152 C-325.62488281 153.0621875 -325.24976563 154.124375 -324.86328125 155.21875 C-322.17384037 162.69020394 -319.49062991 169.39613249 -315 176 C-315 176.66 -315 177.32 -315 178 C-302.58791559 171.33904528 -290.31274856 164.48914644 -278.16894531 157.35058594 C-271.07589249 153.18929798 -263.93372618 149.12755622 -256.75 145.125 C-247.8671278 140.17462038 -239.0131203 135.17664726 -230.1875 130.125 C-229.60504517 129.79163635 -229.02259033 129.45827271 -228.42248535 129.11480713 C-225.46406468 127.42126286 -222.50610134 125.72692174 -219.54833984 124.03222656 C-214.28378943 121.01631711 -209.015245 118.00739789 -203.74697876 114.99798584 C-200.83115361 113.33228029 -197.91559013 111.66611686 -195 110 C-193.83333459 109.33333114 -192.66666792 108.66666448 -191.5 108 C-190.9225 107.67 -190.345 107.34 -189.75 107 C-156.50000002 88.00000001 -156.50000002 88.00000001 -154.75004578 87.00003052 C-153.58322151 86.33327089 -152.41640226 85.6665025 -151.24958801 84.99972534 C-148.33537354 83.33440912 -145.42107258 81.66924463 -142.5065918 80.00439453 C-137.22724336 76.98845394 -131.94856056 73.97137659 -126.67306519 70.94869995 C-123.71996984 69.2567216 -120.76637011 67.56562536 -117.8125 65.875 C-117.23149536 65.54244202 -116.65049072 65.20988403 -116.05187988 64.86724854 C-107.81214849 60.15330102 -99.54203158 55.49632005 -91.25 50.875 C-82.10554429 45.77785402 -73.04640908 40.55001254 -64.01855469 35.24951172 C-55.87411388 30.47972888 -47.6493594 25.8645873 -39.40161133 21.27636719 C-30.73851153 16.44451151 -22.16279888 11.47117329 -13.61328125 6.44140625 C-12.67226563 5.88839844 -11.73125 5.33539062 -10.76171875 4.765625 C-9.93631592 4.27868164 -9.11091309 3.79173828 -8.26049805 3.29003906 C-2.49545799 0 -2.49545799 0 0 0 Z " fill="#004482" transform="translate(329,1353)"/>
<path d="M0 0 C0.93424805 0.00060425 1.86849609 0.0012085 2.83105469 0.00183105 C16.14080591 0.02521552 29.24578204 0.27947097 42.4375 2.1875 C43.46182129 2.32704102 44.48614258 2.46658203 45.54150391 2.61035156 C57.92936021 4.30969052 70.22469131 6.14319674 82.26806641 9.57177734 C84.77120718 10.28221185 87.28218601 10.96160889 89.79296875 11.64453125 C135.91176884 24.41660192 178.48985995 45.64947702 215.4375 76.1875 C215.99711426 76.64946777 216.55672852 77.11143555 217.13330078 77.58740234 C230.3596417 88.57607693 243.22613221 100.12703509 254.4375 113.1875 C255.4150109 114.28142973 256.39430977 115.37376333 257.375 116.46484375 C270.07988434 130.70548334 281.06133402 146.19290314 291.4375 162.1875 C288.43311618 164.55484481 285.33855662 166.43523082 281.984375 168.26953125 C280.90269043 168.86451416 279.82100586 169.45949707 278.70654297 170.07250977 C278.13369568 170.38616486 277.56084839 170.69981995 276.97064209 171.02297974 C267.33921725 176.3002357 257.77943869 181.68172454 248.3125 187.25 C240.24085849 191.9953936 232.11936937 196.63475721 223.9375 201.1875 C215.71547099 205.76316573 207.55175646 210.42332452 199.4375 215.1875 C190.213149 220.60200699 180.91735528 225.87380694 171.57543945 231.08251953 C162.44612258 236.17374609 153.36655085 241.34792475 144.29882812 246.54785156 C139.42061773 249.34324926 134.53815746 252.13120875 129.65615845 254.91998291 C126.66513672 256.628655 123.67437939 258.33778974 120.68359375 260.046875 C119.47249474 260.73893448 118.26139448 261.43099177 117.05029297 262.12304688 C116.15295441 262.63581177 116.15295441 262.63581177 115.23748779 263.15893555 C81.93749998 282.18750001 81.93749998 282.18750001 80.18754578 283.18746948 C79.02072151 283.85422911 77.85390226 284.5209975 76.68708801 285.18777466 C73.77287354 286.85309088 70.85857258 288.51825537 67.9440918 290.18310547 C62.66474336 293.19904606 57.38606056 296.21612341 52.11056519 299.23880005 C49.15746984 300.9307784 46.20387011 302.62187464 43.25 304.3125 C42.66899536 304.64505798 42.08799072 304.97761597 41.48937988 305.32025146 C33.24964849 310.03419898 24.97953158 314.69117995 16.6875 319.3125 C7.54304429 324.40964598 -1.51609092 329.63748746 -10.54394531 334.93798828 C-18.70368496 339.71673087 -26.94458107 344.33926686 -35.20703125 348.9375 C-42.37603695 352.93714452 -49.48342763 357.03098044 -56.5625 361.1875 C-65.71163289 366.55946793 -74.93653131 371.77826525 -84.20703125 376.9375 C-91.37603957 380.93714599 -98.48336585 385.03108252 -105.5625 389.1875 C-114.786851 394.60200699 -124.08264472 399.87380694 -133.42456055 405.08251953 C-142.55387742 410.17374609 -151.63344915 415.34792475 -160.70117188 420.54785156 C-165.57938227 423.34324926 -170.46184254 426.13120875 -175.34384155 428.91998291 C-178.33486328 430.628655 -181.32562061 432.33778974 -184.31640625 434.046875 C-185.52750526 434.73893448 -186.73860552 435.43099177 -187.94970703 436.12304688 C-188.84704559 436.63581177 -188.84704559 436.63581177 -189.76251221 437.15893555 C-223.06249996 456.18749998 -223.06249996 456.18749998 -224.81242371 457.18745422 C-225.97934719 457.8542691 -227.14626817 458.52108835 -228.31318665 459.18791199 C-231.22590351 460.85234701 -234.13866355 462.51670639 -237.05151367 464.1809082 C-242.94807082 467.54990543 -248.8438675 470.92022265 -254.73828125 474.29296875 C-260.55435314 477.6208395 -266.37340578 480.94344859 -272.19384766 484.26367188 C-275.56247922 486.18748813 -278.92773362 488.11712529 -282.29296875 490.046875 C-284.38265119 491.23986594 -286.47248726 492.43258782 -288.5625 493.625 C-289.51809814 494.17502686 -290.47369629 494.72505371 -291.45825195 495.29174805 C-292.33827881 495.79230713 -293.21830566 496.29286621 -294.125 496.80859375 C-294.88941406 497.2461499 -295.65382813 497.68370605 -296.44140625 498.13452148 C-298.48535771 499.14920411 -300.33357764 499.73293378 -302.5625 500.1875 C-310.14628161 485.04697343 -316.94131216 469.85907564 -322.59545898 453.89233398 C-323.24016652 452.0890735 -323.9011925 450.29156432 -324.57836914 448.50024414 C-332.56997785 427.27414859 -336.36599564 404.55642614 -339.5625 382.1875 C-339.69527344 381.29708008 -339.82804688 380.40666016 -339.96484375 379.48925781 C-341.82318926 366.55914034 -341.76286316 353.53614826 -341.8125 340.5 C-341.8179483 339.63071869 -341.82339661 338.76143738 -341.82901001 337.86581421 C-341.88515775 325.8216265 -341.09539118 314.12888429 -339.5625 302.1875 C-339.35611332 300.27652905 -339.15355853 298.36513506 -338.95703125 296.453125 C-334.91225862 260.28352362 -323.84745254 224.68450412 -307.5625 192.1875 C-307.08167969 191.21635254 -306.60085938 190.24520508 -306.10546875 189.24462891 C-296.56665277 170.07576157 -285.56198231 152.19367206 -272.5625 135.1875 C-272.11551758 134.59630371 -271.66853516 134.00510742 -271.20800781 133.39599609 C-265.34598378 125.65803997 -259.15703717 118.37097976 -252.484375 111.3203125 C-250.32453859 109.03683542 -248.26384717 106.68740616 -246.21875 104.30078125 C-242.48953536 100.01697591 -238.46567083 96.11918528 -234.3125 92.25 C-233.56452148 91.55052246 -232.81654297 90.85104492 -232.04589844 90.13037109 C-226.40291995 84.89011487 -220.64540201 79.91468192 -214.5625 75.1875 C-213.53898438 74.38054687 -212.51546875 73.57359375 -211.4609375 72.7421875 C-174.33692785 43.64755802 -132.08381836 22.46935388 -86.5625 10.1875 C-85.19303223 9.8172168 -85.19303223 9.8172168 -83.79589844 9.43945312 C-56.4663985 2.2459063 -28.16974142 -0.03367199 0 0 Z " fill="#659AD1" transform="translate(926.5625,682.8125)"/>
<path d="M0 0 C0.66 0.33 1.32 0.66 2 1 C0.515 1.495 0.515 1.495 -1 2 C1.41548749 4.70715008 3.97261957 6.21429696 7.171875 7.8984375 C8.21649902 8.45329834 9.26112305 9.00815918 10.33740234 9.57983398 C12.02663818 10.46844116 12.02663818 10.46844116 13.75 11.375 C16.13483465 12.64075101 18.51699082 13.91148158 20.8984375 15.18359375 C21.50052032 15.50487747 22.10260315 15.82616119 22.72293091 16.15718079 C28.32787511 19.15707473 33.85648611 22.28231236 39.375 25.4375 C47.94770943 30.32770955 56.60357673 35.04600056 65.3125 39.6875 C74.3072287 44.48196292 83.26794846 49.32545002 92.1640625 54.30078125 C98.36541545 57.76890586 104.59011591 61.19481322 110.8125 64.625 C113.32293696 66.00907778 115.83334691 67.39320455 118.34375 68.77734375 C118.97529999 69.12552155 119.60684998 69.47369934 120.25753784 69.83242798 C124.66295674 72.26155144 129.06629189 74.69442166 133.46875 77.12890625 C145.84646289 83.97164835 158.24372225 90.77428424 170.68798828 97.49560547 C177.08511245 100.9537719 183.45700678 104.45324267 189.80810547 107.99511719 C196.79791407 111.89289452 203.8042302 115.76055176 210.8125 119.625 C212.06339648 120.31485768 213.31429165 121.00471772 214.56518555 121.69458008 C217.10931979 123.09759363 219.65352147 124.50048483 222.19775391 125.90332031 C227.09913431 128.60594332 231.9997872 131.30988447 236.90039062 134.01391602 C239.30392663 135.34012432 241.70757876 136.6661218 244.11132812 137.99194336 C249.59728592 141.01795262 255.08266254 144.0449948 260.56542969 147.07678223 C263.6474373 148.78098683 266.72987994 150.4844035 269.8125 152.1875 C270.41004089 152.51768127 271.00758179 152.84786255 271.62322998 153.18804932 C281.27801243 158.52083292 290.96350507 163.79475934 300.67895508 169.01635742 C301.60216553 169.51369385 302.52537598 170.01103027 303.4765625 170.5234375 C304.6843335 171.1719165 304.6843335 171.1719165 305.91650391 171.83349609 C307.6584208 172.80875727 309.33893733 173.89262489 311 175 C310.4355979 178.7843244 309.41868432 181.31194774 307.296875 184.484375 C306.45467407 185.75063721 306.45467407 185.75063721 305.59545898 187.04248047 C304.98645752 187.93596191 304.37745605 188.82944336 303.75 189.75 C303.12101807 190.68086426 302.49203613 191.61172852 301.84399414 192.57080078 C289.79765477 210.2367537 276.26499366 226.38453307 261.6875 242 C260.71913208 243.04124023 260.71913208 243.04124023 259.73120117 244.10351562 C255.93183796 248.131006 251.98738805 251.86437716 247.78393555 255.46777344 C245.65503066 257.296295 243.61341063 259.20978289 241.5625 261.125 C180.89159682 315.75668618 98.77251116 344.19138066 17.83276367 344.18530273 C14.57262177 344.1874932 11.31281695 344.20572243 8.05273438 344.22460938 C-3.17996095 344.25531515 -13.90361172 343.84733353 -25 342 C-27.17491943 341.70707013 -29.3507076 341.42051335 -31.52734375 341.140625 C-63.78568573 336.74063088 -94.37475471 327.48288826 -124 314 C-125.44514335 313.35899352 -126.89044987 312.71835474 -128.3359375 312.078125 C-160.13192781 297.78104684 -189.0229766 277.09896757 -214.47070312 253.41162109 C-216.00458024 251.9957722 -217.55388083 250.59907167 -219.109375 249.20703125 C-225.4963217 243.47613944 -231.37996318 237.49242816 -237 231 C-237.98312949 229.90122805 -238.96758869 228.80364493 -239.953125 227.70703125 C-253.67737968 212.32037835 -265.34206343 195.62553825 -276 178 C-276.4316748 177.29311035 -276.86334961 176.5862207 -277.30810547 175.85791016 C-278.49024918 173.9132122 -279.65541127 171.95968613 -280.8125 170 C-281.45832031 168.906875 -282.10414063 167.81375 -282.76953125 166.6875 C-284 164 -284 164 -283 161 C-281.24780273 159.7800293 -281.24780273 159.7800293 -278.93359375 158.57421875 C-278.06822998 158.1148291 -277.20286621 157.65543945 -276.3112793 157.18212891 C-275.36293213 156.68890137 -274.41458496 156.19567383 -273.4375 155.6875 C-265.25031043 151.33108753 -257.17624952 146.83556877 -249.1875 142.125 C-241.01237225 137.31567227 -232.78867046 132.61090748 -224.5 128 C-216.27791303 123.42444085 -208.11425396 118.76417402 -200 114 C-190.775649 108.58549301 -181.47985528 103.31369306 -172.13793945 98.10498047 C-163.00862258 93.01375391 -153.92905085 87.83957525 -144.86132812 82.63964844 C-139.98311773 79.84425074 -135.10065746 77.05629125 -130.21865845 74.26751709 C-127.22763672 72.558845 -124.23687939 70.84971026 -121.24609375 69.140625 C-120.03499474 68.44856552 -118.82389448 67.75650823 -117.61279297 67.06445312 C-116.71545441 66.55168823 -116.71545441 66.55168823 -115.79998779 66.02856445 C-111.69486491 63.68277995 -107.58974202 61.33699544 -103.48461914 58.99121094 C-102.90986847 58.66278198 -102.3351178 58.33435303 -101.74295044 57.99597168 C-54.5 31 -54.5 31 -52.75039673 30.00022888 C-51.58240513 29.33280366 -50.41441604 28.66537404 -49.24642944 27.99794006 C-46.35005466 26.34284354 -43.45362831 24.68783742 -40.55712891 23.03295898 C-35.0649923 19.89498324 -29.57327976 16.7562734 -24.08294678 13.61514282 C-21.47553751 12.12344716 -18.86790481 10.63214235 -16.26025391 9.14086914 C-15.01144373 8.42654713 -13.76274433 7.71203142 -12.51416016 6.99731445 C-10.78836224 6.00944553 -9.06215982 5.02228338 -7.3359375 4.03515625 C-6.35157715 3.4719165 -5.3672168 2.90867676 -4.35302734 2.32836914 C-2.9200654 1.51941024 -1.47181369 0.73590685 0 0 Z " fill="#004482" transform="translate(909,1021)"/>
</svg>
